<svg width="1170" height="240" viewBox="0 0 1170 240" fill="none" xmlns="http://www.w3.org/2000/svg">
<path d="M305.5 120.5C373.583 114.353 480.5 116.5 480.5 116.5L600.5 122.5C600.5 122.5 701.613 124.183 765 116.5C814.5 110.5 885.5 94.5 885.5 94.5C885.5 94.5 964.256 79.3052 1013 63.5C1049.05 51.8121 1103.5 28.5 1103.5 28.5L1169.5 0.5V114C1169.5 114 1090.86 110.581 1042 120.5C776 174.5 556 264 332 233C268.44 228.15 216.941 219.429 151.57 211.685C151.047 211.624 150.524 211.562 150 211.5C81.6253 203.445 0 196.5 0 196.5C0 196.5 43.1988 175.458 72 165.5C100.801 155.542 147.5 145 147.5 145C147.5 145 169.746 140.038 184 137.5C198.254 134.962 206.207 133.308 220.5 131C253.519 125.667 272.189 123.508 305.5 120.5Z" fill="url(#paint0_linear_1_21)"/>
<defs>
<linearGradient id="paint0_linear_1_21" x1="186" y1="170.5" x2="1170" y2="121" gradientUnits="userSpaceOnUse">
<stop stop-color="#E04122"/>
<stop offset="1" stop-color="#F89F7F"/>
</linearGradient>
</defs>
</svg>
