<svg width="205" height="48" viewBox="0 0 205 48" fill="none" xmlns="http://www.w3.org/2000/svg">
<path d="M64.158 31.45V39.848C63.8793 39.924 63.436 40 62.828 40.076C62.22 40.152 61.6247 40.19 61.042 40.19C60.4593 40.19 59.94 40.1393 59.484 40.038C59.0533 39.962 58.686 39.81 58.382 39.582C58.078 39.354 57.85 39.0373 57.698 38.632C57.546 38.2267 57.47 37.6947 57.47 37.036V16.972C57.7487 16.9213 58.192 16.858 58.8 16.782C59.408 16.6807 59.9907 16.63 60.548 16.63C61.1307 16.63 61.6373 16.6807 62.068 16.782C62.524 16.858 62.904 17.01 63.208 17.238C63.512 17.466 63.74 17.7827 63.892 18.188C64.044 18.5933 64.12 19.1253 64.12 19.784V25.826L72.024 16.744C73.7467 16.744 74.9753 17.0733 75.71 17.732C76.47 18.3653 76.85 19.1253 76.85 20.012C76.85 20.6707 76.6853 21.2913 76.356 21.874C76.0267 22.4567 75.4947 23.1153 74.76 23.85L70.01 28.6C70.6433 29.3093 71.302 30.044 71.986 30.804C72.6953 31.564 73.3793 32.3113 74.038 33.046C74.722 33.7553 75.368 34.4393 75.976 35.098C76.6093 35.7567 77.154 36.3267 77.61 36.808C77.61 37.3653 77.5087 37.8593 77.306 38.29C77.1033 38.7207 76.8247 39.088 76.47 39.392C76.1407 39.696 75.7607 39.924 75.33 40.076C74.8993 40.228 74.4433 40.304 73.962 40.304C72.9233 40.304 72.0747 40.0507 71.416 39.544C70.7573 39.012 70.124 38.3913 69.516 37.682L64.158 31.45ZM80.1694 21.798C80.4227 21.722 80.8154 21.646 81.3474 21.57C81.9047 21.494 82.4747 21.456 83.0574 21.456C83.6147 21.456 84.1087 21.494 84.5394 21.57C84.9954 21.646 85.3754 21.798 85.6794 22.026C85.9834 22.254 86.2114 22.5707 86.3634 22.976C86.5407 23.356 86.6294 23.8627 86.6294 24.496V32.666C86.6294 33.7047 86.8827 34.452 87.3894 34.908C87.896 35.3387 88.6307 35.554 89.5934 35.554C90.176 35.554 90.6447 35.5033 90.9994 35.402C91.3794 35.3007 91.6707 35.1993 91.8734 35.098V21.798C92.1267 21.722 92.5194 21.646 93.0514 21.57C93.6087 21.494 94.1787 21.456 94.7614 21.456C95.3187 21.456 95.8127 21.494 96.2434 21.57C96.6994 21.646 97.0794 21.798 97.3834 22.026C97.6874 22.254 97.9154 22.5707 98.0674 22.976C98.2447 23.356 98.3334 23.8627 98.3334 24.496V36.048C98.3334 37.3147 97.8014 38.2647 96.7374 38.898C95.8507 39.4553 94.7867 39.8733 93.5454 40.152C92.3294 40.456 90.9994 40.608 89.5554 40.608C88.1874 40.608 86.9207 40.456 85.7554 40.152C84.6154 39.848 83.6274 39.3793 82.7914 38.746C81.9554 38.1127 81.3094 37.302 80.8534 36.314C80.3974 35.3007 80.1694 34.0847 80.1694 32.666V21.798ZM102.325 16.402C102.325 15.4393 102.641 14.6287 103.275 13.97C103.933 13.3113 104.795 12.982 105.859 12.982C106.923 12.982 107.771 13.3113 108.405 13.97C109.063 14.6287 109.393 15.4393 109.393 16.402C109.393 17.3647 109.063 18.1753 108.405 18.834C107.771 19.4927 106.923 19.822 105.859 19.822C104.795 19.822 103.933 19.4927 103.275 18.834C102.641 18.1753 102.325 17.3647 102.325 16.402ZM101.033 42.584C101.59 42.2293 101.995 41.7353 102.249 41.102C102.502 40.494 102.629 39.81 102.629 39.05V21.798C102.907 21.7473 103.313 21.684 103.845 21.608C104.402 21.5067 104.959 21.456 105.517 21.456C106.074 21.456 106.568 21.494 106.999 21.57C107.455 21.646 107.835 21.798 108.139 22.026C108.443 22.254 108.671 22.5707 108.823 22.976C109 23.356 109.089 23.8627 109.089 24.496V39.658C109.089 40.722 108.962 41.6847 108.709 42.546C108.455 43.4073 108.088 44.142 107.607 44.75C107.151 45.3833 106.581 45.8647 105.897 46.194C105.238 46.5487 104.491 46.726 103.655 46.726C102.54 46.726 101.666 46.384 101.033 45.7C100.399 45.0413 100.07 44.2053 100.045 43.192L101.033 42.584ZM113.045 16.402C113.045 15.4393 113.361 14.6287 113.995 13.97C114.653 13.3113 115.515 12.982 116.579 12.982C117.643 12.982 118.491 13.3113 119.125 13.97C119.783 14.6287 120.113 15.4393 120.113 16.402C120.113 17.3647 119.783 18.1753 119.125 18.834C118.491 19.4927 117.643 19.822 116.579 19.822C115.515 19.822 114.653 19.4927 113.995 18.834C113.361 18.1753 113.045 17.3647 113.045 16.402ZM119.809 39.962C119.53 40.0127 119.112 40.076 118.555 40.152C118.023 40.2533 117.478 40.304 116.921 40.304C116.363 40.304 115.857 40.266 115.401 40.19C114.97 40.114 114.603 39.962 114.299 39.734C113.995 39.506 113.754 39.202 113.577 38.822C113.425 38.4167 113.349 37.8973 113.349 37.264V21.798C113.627 21.7473 114.033 21.684 114.565 21.608C115.122 21.5067 115.679 21.456 116.237 21.456C116.794 21.456 117.288 21.494 117.719 21.57C118.175 21.646 118.555 21.798 118.859 22.026C119.163 22.254 119.391 22.5707 119.543 22.976C119.72 23.356 119.809 23.8627 119.809 24.496V39.962ZM130.495 39.962C130.217 40.0127 129.799 40.076 129.241 40.152C128.709 40.2533 128.165 40.304 127.607 40.304C127.05 40.304 126.543 40.266 126.087 40.19C125.657 40.114 125.289 39.962 124.985 39.734C124.681 39.506 124.441 39.202 124.263 38.822C124.111 38.4167 124.035 37.8973 124.035 37.264V15.224C124.314 15.1733 124.719 15.11 125.251 15.034C125.809 14.9327 126.366 14.882 126.923 14.882C127.481 14.882 127.975 14.92 128.405 14.996C128.861 15.072 129.241 15.224 129.545 15.452C129.849 15.68 130.077 15.9967 130.229 16.402C130.407 16.782 130.495 17.2887 130.495 17.922V39.962ZM142.476 35.896C142.906 35.896 143.375 35.858 143.882 35.782C144.414 35.6807 144.806 35.554 145.06 35.402V32.362L142.324 32.59C141.614 32.6407 141.032 32.7927 140.576 33.046C140.12 33.2993 139.892 33.6793 139.892 34.186C139.892 34.6927 140.082 35.1107 140.462 35.44C140.867 35.744 141.538 35.896 142.476 35.896ZM142.172 20.962C143.54 20.962 144.781 21.1013 145.896 21.38C147.036 21.6587 147.998 22.0893 148.784 22.672C149.594 23.2293 150.215 23.9513 150.646 24.838C151.076 25.6993 151.292 26.7253 151.292 27.916V36.428C151.292 37.0867 151.102 37.6313 150.722 38.062C150.367 38.4673 149.936 38.822 149.43 39.126C147.783 40.114 145.465 40.608 142.476 40.608C141.133 40.608 139.917 40.4813 138.828 40.228C137.764 39.9747 136.839 39.5947 136.054 39.088C135.294 38.5813 134.698 37.9353 134.268 37.15C133.862 36.3647 133.66 35.4527 133.66 34.414C133.66 32.666 134.179 31.3233 135.218 30.386C136.256 29.4487 137.865 28.866 140.044 28.638L145.022 28.106V27.84C145.022 27.1053 144.692 26.586 144.034 26.282C143.4 25.9527 142.476 25.788 141.26 25.788C140.297 25.788 139.36 25.8893 138.448 26.092C137.536 26.2947 136.712 26.548 135.978 26.852C135.648 26.624 135.37 26.282 135.142 25.826C134.914 25.3447 134.8 24.8507 134.8 24.344C134.8 23.6853 134.952 23.166 135.256 22.786C135.585 22.3807 136.079 22.0387 136.738 21.76C137.472 21.4813 138.334 21.2787 139.322 21.152C140.335 21.0253 141.285 20.962 142.172 20.962ZM155.318 15.262C155.571 15.186 155.976 15.11 156.534 15.034C157.091 14.9327 157.661 14.882 158.244 14.882C158.801 14.882 159.295 14.92 159.726 14.996C160.182 15.072 160.562 15.224 160.866 15.452C161.17 15.68 161.398 15.9967 161.55 16.402C161.702 16.782 161.778 17.2887 161.778 17.922V21.646C162.411 21.3927 163.006 21.2153 163.564 21.114C164.146 21.0127 164.78 20.962 165.464 20.962C166.68 20.962 167.832 21.1773 168.922 21.608C170.011 22.0387 170.974 22.672 171.81 23.508C172.646 24.3187 173.304 25.332 173.786 26.548C174.267 27.764 174.508 29.17 174.508 30.766C174.508 32.4127 174.254 33.8567 173.748 35.098C173.266 36.314 172.582 37.3273 171.696 38.138C170.809 38.9487 169.72 39.5693 168.428 40C167.161 40.4053 165.755 40.608 164.21 40.608C162.538 40.608 161.119 40.4053 159.954 40C158.788 39.62 157.8 39.1387 156.99 38.556C155.875 37.7707 155.318 36.7573 155.318 35.516V15.262ZM164.21 35.516C165.375 35.516 166.274 35.1233 166.908 34.338C167.566 33.5273 167.896 32.3367 167.896 30.766C167.896 29.17 167.566 27.9793 166.908 27.194C166.249 26.4087 165.362 26.016 164.248 26.016C163.741 26.016 163.298 26.0667 162.918 26.168C162.563 26.2693 162.17 26.4213 161.74 26.624V34.908C162.018 35.0853 162.348 35.2373 162.728 35.364C163.133 35.4653 163.627 35.516 164.21 35.516Z" fill="#F13B0C"/>
<path d="M25.2847 44.0909L24.2064 40.2279L27.2716 26.6529L27.4803 16.8119C27.7449 15.0268 27.1436 14.9576 27.3021 13.9859C25.8716 14.2125 26.848 13.0501 26.2507 13.1316C25.5448 13.228 27.0277 13.0278 25.8788 13.1551L24.5446 20.683L21.2052 32.8419L19.9493 41.7665L19.4603 44.8867C20.6737 44.6904 21.6265 44.5449 22.3189 44.4504C23.1063 44.3428 24.0948 44.2227 25.2844 44.0903L25.2847 44.0909ZM20.9346 31.8165L17.7359 26.645C17.4633 26.1997 17.1418 25.648 16.7712 24.9901C16.4006 24.3321 15.9351 23.4835 15.3746 22.4443C13.9577 22.6687 12.9234 22.8253 12.2717 22.914C11.3757 23.0366 10.2446 23.1761 8.87842 23.3327L14.1525 31.1607L15.0824 32.662C13.7997 34.5864 10.3377 39.3345 4.69647 46.9062C5.92332 46.7081 6.97119 46.5497 7.84006 46.431C8.70893 46.3123 9.78551 46.1802 11.0698 46.0347C12.096 44.4619 12.932 43.2016 13.5778 42.2538C14.2123 41.2925 14.7941 40.4515 15.3231 39.7307L19.7015 33.6359C19.8217 33.4688 20.2326 32.8622 20.934 31.8162L20.9346 31.8165Z" fill="#F13B0C"/>
<path d="M20.0383 45.2786C20.5628 40.3289 20.9825 34.8201 21.2972 28.7522C21.6119 22.6678 21.7956 17.3444 21.8481 12C23.6314 12.0325 25.1189 12.0796 26.3083 12.0796C27.1126 12.0796 27.1187 12.1203 30.1652 12.1203C29.938 15.0803 29.7281 17.9399 29.5358 21.7222L29.0113 31.6134C28.854 34.4418 28.7403 37.2537 28.6702 40.0493L33.1831 40.0986C37.416 40.0986 40.1971 40.0902 41.5265 40.0734C42.8558 40.041 44.1677 39.9916 45.4621 39.9253C45.3046 41.5368 45.1647 43.321 45.0425 45.2779C40.4422 45.2455 36.5065 45.2291 33.2355 45.2286L24.9708 45.2538L20.0383 45.2786Z" fill="#F13B0C"/>
</svg>
